<?xml version="1.0" encoding="UTF-8" standalone="no"?>
<!-- Created with Inkscape (http://www.inkscape.org/) -->

<svg
   width="512"
   height="511.99997"
   viewBox="0 0 135.46667 135.46666"
   version="1.1"
   id="svg1"
   xml:space="preserve"
   xmlns="http://www.w3.org/2000/svg"
   xmlns:svg="http://www.w3.org/2000/svg"><defs
     id="defs1" /><g
     id="g63"
     transform="matrix(1.0821356,0,0,1.0907577,-2.9825749,-5.7636109)"
     style="display:inline"><path
       id="path59"
       style="display:inline;fill:#000000;fill-opacity:1;stroke:none;stroke-width:1.21766"
       d="m 62.220703,19.842882 c -9.770165,0.33867 -19.155839,3.911228 -27.525391,8.798828 -0.547161,0.169046 -0.911489,0.67158 -1.217399,1.065991 -4.64296,1.248094 -9.381517,3.12116 -12.671272,6.767993 -1.836801,2.181292 -2.528856,5.181101 -2.050321,7.970677 0.488557,5.382222 2.401336,10.513934 4.592206,15.41217 2.211618,4.607253 5.11832,9.096134 9.37999,12.048793 2.824964,1.830915 6.525226,2.374964 9.670259,1.062179 0.437654,-0.155951 0.864194,-0.342606 1.292631,-0.521163 -0.609855,0.786742 -1.264602,1.536831 -1.916015,2.289062 4.389216,4.722388 10.494832,7.759683 16.892224,8.497147 3.235259,0.465939 6.522264,0.466348 9.777697,0.233321 1.286223,3.083928 1.12455,7.043905 -1.271484,9.554683 -1.312178,1.1705 -3.60946,0.73538 -4.429572,-0.81502 -1.514828,-2.025945 -2.37273,-5.042215 -4.922484,-6.250024 -2.380258,-1.092083 -5.284867,0.206377 -6.584367,2.356347 -2.36152,3.157718 -2.922806,7.703627 -0.936996,11.187862 2.803927,5.429682 8.350255,9.051072 14.195948,10.450282 7.49219,1.81934 15.921856,-0.0457 21.611459,-5.34606 5.023428,-4.612252 7.866891,-11.130947 9.202953,-17.721729 0.584631,-2.801762 0.914172,-5.650498 1.130637,-8.502278 7.169064,-11.799135 14.356254,-23.588268 21.525394,-35.386718 1.63108,-3.451937 -0.0825,-8.08451 -3.68164,-9.478515 -2.81374,-1.249735 -6.33903,-0.248292 -8.16222,2.208366 -3.86399,5.206272 -7.749095,10.401815 -11.605362,15.615852 -1.482038,-7.68353 -4.082828,-15.389621 -9.096332,-21.521347 -4.85534,-5.96193 -12.341032,-9.618059 -20.01182,-9.91484 -1.061485,-0.06395 -2.125603,-0.07464 -3.188723,-0.06186 z" /><g
       id="g60"
       style="display:inline"
       transform="matrix(0.88750017,0,0,0.88750015,1.9692779,7.9062897)"><path
         style="display:inline;fill:#ececec;fill-opacity:1;stroke:#000000;stroke-width:1.37202;stroke-dasharray:none;stroke-opacity:1"
         d="M 76.464861,82.262337 C 57.202148,84.294124 50.113767,76.297761 48.63961,75.103244 c 0,0 6.136362,-6.749999 7.815302,-16.340369 -1.208492,0.102705 -3.862755,9.997158 -13.266897,12.412286 -13.036605,3.348 -23.732614,-27.653114 -21.335861,-34.62779 3.18198,-9.259724 24.760489,-11.396112 24.789599,-11.119237 -1.645609,-0.873183 -5.233854,-1.451643 -5.233854,-1.451643 0,0 51.37471,-30.1378581 60.618071,28.013117 C 111.20445,109.7324 84.06138,113.54035 75.592107,112.98138 62.244083,112.10041 55.266601,102.35435 55.7987,97.398699 c 0.571529,-5.322872 4.938616,-10.200889 7.977272,-4.909092 2.386541,4.156142 4.232065,8.596273 10.361324,6.312082 2.338808,-0.8716 5.304783,-6.430805 4.258235,-11.187986 0,0 -0.601283,-3.866789 -1.93067,-5.351366 z"
         id="path60" /><ellipse
         style="display:inline;fill:#000000;fill-opacity:1;stroke:none;stroke-width:0.264583;stroke-opacity:1"
         id="ellipse60"
         cx="78.145294"
         cy="39.819157"
         rx="4.7556815"
         ry="5.113636" /></g><path
       style="display:inline;fill:#ffffff;fill-opacity:1;stroke:#000000;stroke-width:1.70473;stroke-dasharray:none;stroke-opacity:1"
       d="M 79.386434,85.001871 63.785722,72.027534 c -1.97455,-1.642136 -5.297689,-4.615558 -5.483786,-7.169339 -0.120821,-1.658025 0.354803,-3.373995 1.458063,-4.74047 2.144157,-2.655706 5.889541,-3.038363 8.575833,-0.771656 L 80.6307,69.262422 A 2.8509649,2.9487734 0 0 0 84.645482,68.73242 L 107.70278,37.6595 c 0.36864,-0.496791 1.03563,-1.242467 1.55513,-1.562664 1.17782,-0.725975 2.69533,-1.076238 4.37315,-0.179666 0.53722,0.287074 1.3288,0.914948 1.69013,1.415002 1.30578,1.807114 0.9529,4.4358 -0.2003,5.636537 L 90.766684,83.028282 a 7.7249997,7.9900227 0 0 1 -11.38025,1.973589 z"
       id="path62" /></g></svg>
